<svg xmlns="http://www.w3.org/2000/svg" width="980" height="165" viewBox="0 0 980 165" role="img"><defs><linearGradient id="luna" x1="0" y1="0" x2="0" y2="1"><stop offset="0%" stop-color="#3F8CF3"/><stop offset="45%" stop-color="#0054E3"/><stop offset="100%" stop-color="#0A246A"/></linearGradient><linearGradient id="grass" x1="0" y1="0" x2="0" y2="1"><stop offset="0%" stop-color="#8CC63F"/><stop offset="100%" stop-color="#5C9E1E"/></linearGradient><linearGradient id="sky" x1="0" y1="0" x2="0" y2="1"><stop offset="0%" stop-color="#4B9BF5"/><stop offset="100%" stop-color="#0054E3"/></linearGradient><linearGradient id="btnblue" x1="0" y1="0" x2="0" y2="1"><stop offset="0%" stop-color="#7CBBF9"/><stop offset="100%" stop-color="#2E7BD6"/></linearGradient><linearGradient id="closeb" x1="0" y1="0" x2="0" y2="1"><stop offset="0%" stop-color="#E8785A"/><stop offset="100%" stop-color="#C4462A"/></linearGradient></defs><g transform="translate(0,0)"><path d="M0 8 A 8 8 0 0 1 8 0 L 972 0 A 8 8 0 0 1 980 8 L 980 165 L 0 165 Z" fill="#0054E3"/><path d="M0 8 A 8 8 0 0 1 8 0 L 972 0 A 8 8 0 0 1 980 8 L 980 30 L 0 30 Z" fill="url(#luna)"/><rect x="3" y="30" width="974" height="132" fill="#ECE9D8"/><text x="13" y="20" font-family="Tahoma, 'Segoe UI', Verdana, DejaVu Sans, sans-serif" font-size="13" font-weight="bold" fill="#FFFFFF" style="paint-order:stroke" stroke="#0A246A" stroke-width="2.2" stroke-linejoin="round">Commits by Day of Week</text><rect x="906" y="6" width="20" height="18" rx="3" fill="url(#btnblue)" stroke="#FFFFFF" stroke-opacity="0.65"/><line x1="912" y1="19" x2="920" y2="19" stroke="#FFFFFF" stroke-width="2" stroke-linecap="round"/><rect x="929" y="6" width="20" height="18" rx="3" fill="url(#btnblue)" stroke="#FFFFFF" stroke-opacity="0.65"/><rect x="934.5" y="10.5" width="9" height="9" fill="none" stroke="#FFFFFF" stroke-width="1.3"/><line x1="934.5" y1="11.6" x2="943.5" y2="11.6" stroke="#FFFFFF" stroke-width="2"/><rect x="952" y="6" width="20" height="18" rx="3" fill="url(#closeb)" stroke="#FFFFFF" stroke-opacity="0.65"/><line x1="958.7" y1="11.7" x2="965.3" y2="18.3" stroke="#FFFFFF" stroke-width="2" stroke-linecap="round"/><line x1="958.7" y1="18.3" x2="965.3" y2="11.7" stroke="#FFFFFF" stroke-width="2" stroke-linecap="round"/></g><text x="16" y="42" font-family="Tahoma, 'Segoe UI', Verdana, DejaVu Sans, sans-serif" font-size="11" fill="#4A4636">Weekends in Bliss green</text><rect x="26" y="56" width="115.42857142857142" height="83" fill="url(#grass)" stroke="#5C9E1E" stroke-width="0.5"/><text x="83.71428571428571" y="71" font-family="Tahoma, 'Segoe UI', Verdana, DejaVu Sans, sans-serif" font-size="11" font-weight="bold" fill="#FFFFFF" text-anchor="middle">23</text><text x="83.71428571428571" y="154" font-family="Tahoma, 'Segoe UI', Verdana, DejaVu Sans, sans-serif" font-size="11" fill="#4A4636" text-anchor="middle">Sun</text><rect x="161.42857142857142" y="131.7826086956522" width="115.42857142857142" height="7.217391304347826" fill="url(#sky)" stroke="#0054E3" stroke-width="0.5"/><text x="219.1428571428571" y="126.78260869565219" font-family="Tahoma, 'Segoe UI', Verdana, DejaVu Sans, sans-serif" font-size="11" font-weight="bold" fill="#000000" text-anchor="middle">2</text><text x="219.1428571428571" y="154" font-family="Tahoma, 'Segoe UI', Verdana, DejaVu Sans, sans-serif" font-size="11" fill="#4A4636" text-anchor="middle">Mon</text><rect x="296.85714285714283" y="124.56521739130434" width="115.42857142857142" height="14.434782608695652" fill="url(#sky)" stroke="#0054E3" stroke-width="0.5"/><text x="354.57142857142856" y="119.56521739130434" font-family="Tahoma, 'Segoe UI', Verdana, DejaVu Sans, sans-serif" font-size="11" font-weight="bold" fill="#000000" text-anchor="middle">4</text><text x="354.57142857142856" y="154" font-family="Tahoma, 'Segoe UI', Verdana, DejaVu Sans, sans-serif" font-size="11" fill="#4A4636" text-anchor="middle">Tue</text><rect x="432.2857142857142" y="131.7826086956522" width="115.42857142857142" height="7.217391304347826" fill="url(#sky)" stroke="#0054E3" stroke-width="0.5"/><text x="489.99999999999994" y="126.78260869565219" font-family="Tahoma, 'Segoe UI', Verdana, DejaVu Sans, sans-serif" font-size="11" font-weight="bold" fill="#000000" text-anchor="middle">2</text><text x="489.99999999999994" y="154" font-family="Tahoma, 'Segoe UI', Verdana, DejaVu Sans, sans-serif" font-size="11" fill="#4A4636" text-anchor="middle">Wed</text><rect x="567.7142857142857" y="102.91304347826087" width="115.42857142857142" height="36.08695652173913" fill="url(#sky)" stroke="#0054E3" stroke-width="0.5"/><text x="625.4285714285713" y="117.91304347826087" font-family="Tahoma, 'Segoe UI', Verdana, DejaVu Sans, sans-serif" font-size="11" font-weight="bold" fill="#FFFFFF" text-anchor="middle">10</text><text x="625.4285714285713" y="154" font-family="Tahoma, 'Segoe UI', Verdana, DejaVu Sans, sans-serif" font-size="11" fill="#4A4636" text-anchor="middle">Thu</text><rect x="703.1428571428571" y="110.13043478260869" width="115.42857142857142" height="28.869565217391305" fill="url(#sky)" stroke="#0054E3" stroke-width="0.5"/><text x="760.8571428571428" y="125.13043478260869" font-family="Tahoma, 'Segoe UI', Verdana, DejaVu Sans, sans-serif" font-size="11" font-weight="bold" fill="#FFFFFF" text-anchor="middle">8</text><text x="760.8571428571428" y="154" font-family="Tahoma, 'Segoe UI', Verdana, DejaVu Sans, sans-serif" font-size="11" fill="#4A4636" text-anchor="middle">Fri</text><rect x="838.5714285714284" y="77.65217391304348" width="115.42857142857142" height="61.347826086956516" fill="url(#grass)" stroke="#5C9E1E" stroke-width="0.5"/><text x="896.2857142857141" y="92.65217391304348" font-family="Tahoma, 'Segoe UI', Verdana, DejaVu Sans, sans-serif" font-size="11" font-weight="bold" fill="#FFFFFF" text-anchor="middle">17</text><text x="896.2857142857141" y="154" font-family="Tahoma, 'Segoe UI', Verdana, DejaVu Sans, sans-serif" font-size="11" fill="#4A4636" text-anchor="middle">Sat</text></svg>
